<svg width="1440" height="109" viewBox="0 0 1440 109" fill="none" xmlns="http://www.w3.org/2000/svg">
<path d="M628.75 107V87.5H577V72.2L626.2 2H647.95V70.85H661.75V87.5H647.95V107H628.75ZM597.55 70.85H629.95V23.15L597.55 70.85Z" fill="white"/>
<path d="M831.301 107V87.5H779.551V72.2L828.751 2H850.501V70.85H864.301V87.5H850.501V107H831.301ZM800.101 70.85H832.501V23.15L800.101 70.85Z" fill="white"/>
<path d="M720.051 108.6C710.351 108.6 702.051 106.35 695.151 101.85C688.251 97.25 682.901 90.9 679.101 82.8C675.401 74.6 673.551 65.1 673.551 54.3C673.551 43.6 675.401 34.15 679.101 25.95C682.901 17.75 688.251 11.4 695.151 6.9C702.051 2.3 710.351 0 720.051 0C729.751 0 738.051 2.3 744.951 6.9C751.851 11.4 757.151 17.75 760.851 25.95C764.651 34.15 766.551 43.6 766.551 54.3C766.551 65.1 764.651 74.6 760.851 82.8C757.151 90.9 751.851 97.25 744.951 101.85C738.051 106.35 729.751 108.6 720.051 108.6ZM720.051 91.35C727.951 91.35 734.401 88.05 739.401 81.45C744.401 74.85 746.901 65.8 746.901 54.3C746.901 42.8 744.401 33.75 739.401 27.15C734.401 20.55 727.951 17.25 720.051 17.25C712.051 17.25 705.551 20.55 700.551 27.15C695.651 33.75 693.201 42.8 693.201 54.3C693.201 65.8 695.651 74.85 700.551 81.45C705.551 88.05 712.051 91.35 720.051 91.35Z" fill="#366CE3"/>
<g opacity="0.05">
<path d="M292.75 107V87.5H241V72.2L290.2 2H311.95V70.85H325.75V87.5H311.95V107H292.75ZM261.55 70.85H293.95V23.15L261.55 70.85Z" fill="white"/>
<path d="M495.301 107V87.5H443.551V72.2L492.751 2H514.501V70.85H528.301V87.5H514.501V107H495.301ZM464.101 70.85H496.501V23.15L464.101 70.85Z" fill="white"/>
<path d="M384.051 108.6C374.351 108.6 366.051 106.35 359.151 101.85C352.251 97.25 346.901 90.9 343.101 82.8C339.401 74.6 337.551 65.1 337.551 54.3C337.551 43.6 339.401 34.15 343.101 25.95C346.901 17.75 352.251 11.4 359.151 6.9C366.051 2.3 374.351 0 384.051 0C393.751 0 402.051 2.3 408.951 6.9C415.851 11.4 421.151 17.75 424.851 25.95C428.651 34.15 430.551 43.6 430.551 54.3C430.551 65.1 428.651 74.6 424.851 82.8C421.151 90.9 415.851 97.25 408.951 101.85C402.051 106.35 393.751 108.6 384.051 108.6ZM384.051 91.35C391.951 91.35 398.401 88.05 403.401 81.45C408.401 74.85 410.901 65.8 410.901 54.3C410.901 42.8 408.401 33.75 403.401 27.15C398.401 20.55 391.951 17.25 384.051 17.25C376.051 17.25 369.551 20.55 364.551 27.15C359.651 33.75 357.201 42.8 357.201 54.3C357.201 65.8 359.651 74.85 364.551 81.45C369.551 88.05 376.051 91.35 384.051 91.35Z" fill="#366CE3"/>
</g>
<g opacity="0.05">
<path d="M1300.75 107V87.5H1249V72.2L1298.2 2H1319.95V70.85H1333.75V87.5H1319.95V107H1300.75ZM1269.55 70.85H1301.95V23.15L1269.55 70.85Z" fill="white"/>
<path d="M1392.05 108.6C1382.35 108.6 1374.05 106.35 1367.15 101.85C1360.25 97.25 1354.9 90.9 1351.1 82.8C1347.4 74.6 1345.55 65.1 1345.55 54.3C1345.55 43.6 1347.4 34.15 1351.1 25.95C1354.9 17.75 1360.25 11.4 1367.15 6.9C1374.05 2.3 1382.35 0 1392.05 0C1401.75 0 1410.05 2.3 1416.95 6.9C1423.85 11.4 1429.15 17.75 1432.85 25.95C1436.65 34.15 1438.55 43.6 1438.55 54.3C1438.55 65.1 1436.65 74.6 1432.85 82.8C1429.15 90.9 1423.85 97.25 1416.95 101.85C1410.05 106.35 1401.75 108.6 1392.05 108.6ZM1392.05 91.35C1399.95 91.35 1406.4 88.05 1411.4 81.45C1416.4 74.85 1418.9 65.8 1418.9 54.3C1418.9 42.8 1416.4 33.75 1411.4 27.15C1406.4 20.55 1399.95 17.25 1392.05 17.25C1384.05 17.25 1377.55 20.55 1372.55 27.15C1367.65 33.75 1365.2 42.8 1365.2 54.3C1365.2 65.8 1367.65 74.85 1372.55 81.45C1377.55 88.05 1384.05 91.35 1392.05 91.35Z" fill="#366CE3"/>
</g>
<g opacity="0.05">
<path d="M159.301 107V87.5H107.551V72.2L156.751 2H178.501V70.85H192.301V87.5H178.501V107H159.301ZM128.101 70.85H160.501V23.15L128.101 70.85Z" fill="white"/>
<path d="M48.0508 108.6C38.3508 108.6 30.0508 106.35 23.1508 101.85C16.2508 97.25 10.9008 90.9 7.10078 82.8C3.40078 74.6 1.55078 65.1 1.55078 54.3C1.55078 43.6 3.40078 34.15 7.10078 25.95C10.9008 17.75 16.2508 11.4 23.1508 6.9C30.0508 2.3 38.3508 0 48.0508 0C57.7508 0 66.0508 2.3 72.9508 6.9C79.8508 11.4 85.1508 17.75 88.8508 25.95C92.6508 34.15 94.5508 43.6 94.5508 54.3C94.5508 65.1 92.6508 74.6 88.8508 82.8C85.1508 90.9 79.8508 97.25 72.9508 101.85C66.0508 106.35 57.7508 108.6 48.0508 108.6ZM48.0508 91.35C55.9508 91.35 62.4008 88.05 67.4008 81.45C72.4008 74.85 74.9008 65.8 74.9008 54.3C74.9008 42.8 72.4008 33.75 67.4008 27.15C62.4008 20.55 55.9508 17.25 48.0508 17.25C40.0508 17.25 33.5508 20.55 28.5508 27.15C23.6508 33.75 21.2008 42.8 21.2008 54.3C21.2008 65.8 23.6508 74.85 28.5508 81.45C33.5508 88.05 40.0508 91.35 48.0508 91.35Z" fill="#366CE3"/>
</g>
<g opacity="0.05">
<path d="M964.75 107V87.5H913V72.2L962.2 2H983.95V70.85H997.75V87.5H983.95V107H964.75ZM933.55 70.85H965.95V23.15L933.55 70.85Z" fill="white"/>
<path d="M1167.3 107V87.5H1115.55V72.2L1164.75 2H1186.5V70.85H1200.3V87.5H1186.5V107H1167.3ZM1136.1 70.85H1168.5V23.15L1136.1 70.85Z" fill="white"/>
<path d="M1056.05 108.6C1046.35 108.6 1038.05 106.35 1031.15 101.85C1024.25 97.25 1018.9 90.9 1015.1 82.8C1011.4 74.6 1009.55 65.1 1009.55 54.3C1009.55 43.6 1011.4 34.15 1015.1 25.95C1018.9 17.75 1024.25 11.4 1031.15 6.9C1038.05 2.3 1046.35 0 1056.05 0C1065.75 0 1074.05 2.3 1080.95 6.9C1087.85 11.4 1093.15 17.75 1096.85 25.95C1100.65 34.15 1102.55 43.6 1102.55 54.3C1102.55 65.1 1100.65 74.6 1096.85 82.8C1093.15 90.9 1087.85 97.25 1080.95 101.85C1074.05 106.35 1065.75 108.6 1056.05 108.6ZM1056.05 91.35C1063.95 91.35 1070.4 88.05 1075.4 81.45C1080.4 74.85 1082.9 65.8 1082.9 54.3C1082.9 42.8 1080.4 33.75 1075.4 27.15C1070.4 20.55 1063.95 17.25 1056.05 17.25C1048.05 17.25 1041.55 20.55 1036.55 27.15C1031.65 33.75 1029.2 42.8 1029.2 54.3C1029.2 65.8 1031.65 74.85 1036.55 81.45C1041.55 88.05 1048.05 91.35 1056.05 91.35Z" fill="#366CE3"/>
</g>
</svg>
