<svg width="1440" height="751" viewBox="0 0 1440 751" fill="none" xmlns="http://www.w3.org/2000/svg">
<g opacity="0.1">
<path d="M171.534 -731.375C437.137 -627.054 975.118 -523.767 1002.22 -945.187C1027.64 -1340.54 1284.38 -1362.55 1432.94 -1319.12C1451.72 -1313.63 1469.25 -1304.87 1485.65 -1294.19C1802.56 -1087.82 2155.02 -561.186 1190.18 24.0136C200.041 624.563 265.222 -417.817 421.58 -1014.08" stroke="black"/>
<path d="M102.019 -704.082C367.622 -599.761 905.603 -496.474 932.703 -917.895C958.126 -1313.25 1214.86 -1335.26 1363.42 -1291.83C1382.21 -1286.34 1399.73 -1277.58 1416.13 -1266.9C1733.04 -1060.52 2085.5 -533.894 1120.67 51.3063C130.526 651.855 195.707 -390.525 352.065 -986.783" stroke="black"/>
<path d="M32.5015 -676.79C298.105 -572.469 836.086 -469.183 863.186 -890.603C888.609 -1285.96 1145.35 -1307.97 1293.9 -1264.54C1312.69 -1259.04 1330.22 -1250.29 1346.62 -1239.61C1663.52 -1033.23 2015.99 -506.602 1051.15 78.5981C61.0088 679.147 126.19 -363.233 282.548 -959.492" stroke="black"/>
<path d="M-37.0117 -649.497C228.592 -545.176 766.573 -441.889 793.672 -863.31C819.096 -1258.67 1075.83 -1280.67 1224.39 -1237.24C1243.17 -1231.75 1260.7 -1222.99 1277.1 -1212.31C1594.01 -1005.94 1946.47 -479.309 981.638 105.891C-8.50436 706.44 56.6765 -335.94 213.035 -932.198" stroke="black"/>
<path d="M-106.527 -622.205C159.076 -517.884 697.058 -414.597 724.157 -836.017C749.581 -1231.37 1006.32 -1253.38 1154.88 -1209.95C1173.66 -1204.46 1191.19 -1195.7 1207.59 -1185.02C1524.5 -978.646 1876.96 -452.016 912.122 133.184C-78.0195 733.733 -12.8387 -308.647 143.519 -904.906" stroke="black"/>
<path d="M-176.044 -594.912C89.5594 -490.591 627.541 -387.304 654.64 -808.725C680.063 -1204.08 936.802 -1226.09 1085.36 -1182.66C1104.14 -1177.17 1121.67 -1168.41 1138.07 -1157.73C1454.98 -951.353 1807.44 -424.724 842.605 160.476C-147.537 761.025 -82.3558 -281.355 74.0024 -877.613" stroke="black"/>
<path d="M-245.559 -567.621C20.0447 -463.3 558.026 -360.013 585.125 -781.433C610.549 -1176.79 867.288 -1198.8 1015.84 -1155.37C1034.63 -1149.88 1052.16 -1141.12 1068.56 -1130.44C1385.46 -924.062 1737.93 -397.432 773.091 187.768C-217.051 788.317 -151.87 -254.063 4.48773 -850.322" stroke="black"/>
<path d="M-315.074 -540.328C-49.4704 -436.007 488.511 -332.72 515.61 -754.14C541.034 -1149.5 797.773 -1171.51 946.329 -1128.07C965.113 -1122.58 982.642 -1113.83 999.041 -1103.15C1315.95 -896.769 1668.41 -370.139 703.576 215.06C-286.566 815.61 -221.386 -226.77 -65.0274 -823.029" stroke="black"/>
<path d="M-384.589 -513.035C-118.986 -408.714 418.996 -305.427 446.095 -726.847C471.519 -1122.2 728.258 -1144.21 876.814 -1100.78C895.598 -1095.29 913.127 -1086.53 929.526 -1075.85C1246.43 -869.476 1598.9 -342.846 634.06 242.354C-356.082 842.903 -290.901 -199.477 -134.543 -795.736" stroke="black"/>
<path d="M-454.104 -485.742C-188.501 -381.421 349.481 -278.135 376.58 -699.555C402.003 -1094.91 658.742 -1116.92 807.299 -1073.49C826.083 -1068 843.612 -1059.24 860.011 -1048.56C1176.92 -842.183 1529.38 -315.554 564.545 269.646C-425.597 870.195 -360.416 -172.185 -204.058 -768.444" stroke="black"/>
<path d="M-523.619 -458.45C-258.015 -354.13 279.966 -250.843 307.065 -672.263C332.489 -1067.62 589.228 -1089.63 737.784 -1046.2C756.568 -1040.71 774.097 -1031.95 790.496 -1021.27C1107.4 -814.892 1459.87 -288.262 495.031 296.938C-495.111 897.487 -429.93 -144.893 -273.572 -741.152" stroke="black"/>
<path d="M-593.136 -431.158C-327.533 -326.837 210.448 -223.55 237.548 -644.97C262.971 -1040.33 519.71 -1062.34 668.266 -1018.9C687.05 -1013.41 704.579 -1004.66 720.979 -993.975C1037.89 -787.599 1390.35 -260.969 425.513 324.231C-564.629 924.78 -499.448 -117.6 -343.09 -713.859" stroke="black"/>
<path d="M-662.651 -403.866C-397.048 -299.545 140.934 -196.258 168.033 -617.678C193.456 -1013.03 450.195 -1035.04 598.752 -991.612C617.536 -986.12 635.065 -977.363 651.464 -966.683C968.371 -760.307 1320.83 -233.677 355.998 351.523C-634.144 952.072 -568.963 -90.3081 -412.605 -686.567" stroke="black"/>
<path d="M-732.164 -376.572C-466.561 -272.251 71.4202 -168.965 98.5195 -590.385C123.943 -985.741 380.682 -1007.75 529.238 -964.318C548.022 -958.827 565.551 -950.07 581.95 -939.39C898.858 -733.013 1251.32 -206.384 286.485 378.816C-703.657 979.365 -638.476 -63.0149 -482.118 -659.274" stroke="black"/>
<path d="M-801.681 -349.28C-536.078 -244.959 1.90356 -141.673 29.0029 -563.093C54.4262 -958.449 311.165 -980.458 459.722 -937.026C478.505 -931.535 496.035 -922.778 512.434 -912.098C829.341 -705.721 1181.8 -179.092 216.968 406.108C-773.174 1006.66 -707.993 -35.7229 -551.635 -631.982" stroke="black"/>
<path d="M-871.197 -321.988C-605.593 -217.667 -67.6121 -114.38 -40.5127 -535.801C-15.0894 -931.156 241.65 -953.166 390.206 -909.734C408.99 -904.243 426.519 -895.485 442.918 -884.806C759.825 -678.429 1112.29 -151.8 147.452 433.4C-842.689 1033.95 -777.509 -8.43064 -621.15 -604.689" stroke="black"/>
<path d="M-940.711 -294.696C-675.108 -190.375 -137.127 -87.0879 -110.027 -508.508C-84.6041 -903.864 172.135 -925.873 320.691 -882.442C339.475 -876.95 357.004 -868.193 373.404 -857.513C690.311 -651.137 1042.77 -124.507 77.9378 460.693C-912.204 1061.24 -847.023 18.8618 -690.665 -577.397" stroke="black"/>
<path d="M-1010.23 -267.403C-744.624 -163.082 -206.642 -59.7952 -179.543 -481.215C-154.12 -876.571 102.619 -898.58 251.176 -855.149C269.96 -849.657 287.489 -840.9 303.888 -830.221C620.795 -623.844 973.257 -97.2144 8.42221 487.986C-981.72 1088.53 -916.539 46.1546 -760.181 -550.104" stroke="black"/>
<path d="M-1079.74 -240.11C-814.138 -135.789 -276.157 -32.5027 -249.058 -453.923C-223.634 -849.279 33.1047 -871.288 181.661 -827.857C200.445 -822.365 217.974 -813.608 234.373 -802.928C551.28 -596.552 903.743 -69.9219 -61.0924 515.278C-1051.23 1115.83 -986.054 73.447 -829.695 -522.812" stroke="black"/>
<path d="M-1149.26 -212.818C-883.653 -108.497 -345.672 -5.21045 -318.572 -426.631C-293.149 -821.987 -36.41 -843.996 112.146 -800.564C130.93 -795.073 148.459 -786.315 164.859 -775.636C481.766 -569.259 834.228 -42.6297 -130.607 542.57C-1120.75 1143.12 -1055.57 100.739 -899.21 -495.519" stroke="black"/>
<path d="M-1218.77 -185.525C-953.169 -81.2043 -415.187 22.0825 -388.088 -399.338C-362.665 -794.694 -105.926 -816.703 42.6307 -773.271C61.4146 -767.78 78.9437 -759.022 95.3431 -748.343C412.25 -541.966 764.712 -15.3367 -200.123 569.863C-1190.26 1170.41 -1125.08 128.032 -968.726 -468.226" stroke="black"/>
</g>
</svg>
